<svg xmlns="http://www.w3.org/2000/svg" xmlns:xlink="http://www.w3.org/1999/xlink" viewBox="0,0,256,256" width="24px" height="24px" fill-rule="nonzero"><g fill="#ffffff" fill-rule="nonzero" stroke="none" stroke-width="1" stroke-linecap="butt" stroke-linejoin="miter" stroke-miterlimit="10" stroke-dasharray="" stroke-dashoffset="0" font-family="none" font-weight="none" font-size="none" text-anchor="none" style="mix-blend-mode: normal"><g transform="scale(10.66667,10.66667)"><path d="M12,1c-6.0625,0 -11,4.9375 -11,11c0,6.0625 4.9375,11 11,11c6.0625,0 11,-4.9375 11,-11c0,-6.0625 -4.9375,-11 -11,-11zM12,3c4.98047,0 9,4.01953 9,9c0,4.98047 -4.01953,9 -9,9c-4.98047,0 -9,-4.01953 -9,-9c0,-4.98047 4.01953,-9 9,-9zM17.40625,8.1875l-6.40625,6.375l-3.28125,-3.28125l-1.4375,1.4375l4,4l0.71875,0.6875l0.71875,-0.6875l7.09375,-7.125z"></path></g></g></svg>